<svg xmlns="http://www.w3.org/2000/svg" viewBox="0 0 381.53 371.39"><path d="M191.37,0c1.8.26,3.63.42,5.4.81,10.41,2.33,18.98,7.3,23.91,17.21,2.92,5.88,3.66,12.18,3.06,18.66-1.11,12.03-7.75,20.19-18.2,25.46-2.57,1.3-3.47,2.86-3.43,5.67.17,13.19.15,26.39.22,39.59,0,.78.2,1.55.31,2.3.27.04.4.1.5.06,6.72-2.54,13.47-4.99,19.41-9.21,7-4.97,12.7-11.15,17.72-18.06,4.82-6.63,9.8-13.14,15.6-18.97,9.17-9.21,20.13-14.84,32.97-16.95,5.78-.95,11.58-1.14,17.41-1.15,13.27-.02,26.54-.07,39.81-.08,11.11,0,22.22.04,33.34.05h2.13c-.1,1.87-.11,3.62-.3,5.34-.78,6.91-3.02,13.29-7.25,18.88-6.4,8.45-14.37,14.7-24.76,17.52-3.92,1.07-7.92,1.52-11.95,1.53-18.23.05-36.46.03-54.68.03-1.16,0-1.74.6-1.75,1.79v18.36c0,1.17.6,1.76,1.81,1.76h50.85c.54,0,1.08.06,1.69.09-.66,4.4-1.92,8.46-3.87,12.28-6.14,12.06-15.06,21.26-27.67,26.57-5.14,2.17-10.52,3.66-16.08,3.89-9.25.39-18.52.55-27.79.58-17.02.07-34.04-.02-51.06-.03-.56,0-1.12.1-1.68.15,0,.1,0,.2,0,.3,1.12.12,2.24.26,3.37.36,13.56,1.21,26.93,3.48,40.05,7.19,10.83,3.07,20.83,7.72,29.8,14.6,5.7,4.37,9.59,9.74,10.84,16.89,1.4,8.05-.73,15.01-6.45,20.86-6.57,6.72-14.47,11.38-23.07,14.95-3.46,1.44-6.94,2.84-10.4,4.27-.21.09-.39.24-.8.49,1.93,1.51,3.7,2.99,5.56,4.33,7.24,5.26,11.82,12.21,12.98,21.12,1.05,8.05-1.38,15.21-6.4,21.54-3.87,4.89-8.87,8.36-14.21,11.41-3.46,1.97-6.91,3.98-10.51,6.06.24.31.5.69.8,1.02,2.96,3.25,5.57,6.73,6.85,11,2.7,9.04.38,16.87-6.03,23.57-5.16,5.4-11.67,8.56-18.64,10.88-5.64,1.88-11.38,3.38-17.27,4.23-1,.14-1.22.55-1.21,1.47.03,6.36.02,12.72.02,19.08v1.53c-.49.03-.87.08-1.26.08-6.56,0-13.11-.02-19.67.03-1.1,0-1.33-.37-1.33-1.38.04-6.12-.02-12.24.05-18.36,0-1.33-.4-1.84-1.7-2.16-5.72-1.43-11.5-2.7-17.07-4.57-7.11-2.39-13.77-5.85-19.36-10.98-5.05-4.64-7.44-10.54-7.11-17.38.29-6.01,2.78-11.17,6.79-15.62.64-.71,1.26-1.44,1.89-2.17.05-.05.05-.14.13-.38-.88-.46-1.78-.94-2.7-1.41-5.06-2.56-10.13-5.09-14.5-8.82-4.17-3.56-7.77-7.6-10.7-12.22-2.19-3.45-3.09-7.31-3.37-11.36-.37-5.46.58-10.62,3.8-15.12,1.55-2.17,3.47-4.07,5.25-6.07,2.61-2.92,5.25-5.81,7.88-8.72.32-.35.62-.72,1.04-1.22-.67-.31-1.22-.58-1.79-.82-5.85-2.56-11.81-4.88-17.51-7.73-5.83-2.92-10.96-6.93-15.04-12.08-7.71-9.75-7.24-22.69,1.02-32.21,5.17-5.96,11.66-10.02,18.81-13.11,10-4.32,20.39-7.39,31.08-9.32,7.33-1.32,14.72-2.28,22.09-3.36,1.84-.27,3.69-.38,5.54-.57v-.34h-1.84c-23.94,0-47.89.05-71.83-.02-15.36-.04-28.56-5.63-39.74-16.07-7.23-6.75-11.82-15.09-14.47-24.56,0-.04-.03-.08-.04-.11-.59-2.6-.39-2.56,1.88-2.56,16.79.03,33.58.01,50.37.01,1.73,0,1.74,0,1.74-1.7v-18.6c0-1.66,0-1.67-1.63-1.67-17.83,0-35.66.02-53.48-.02-16.36-.03-29.14-6.86-38.37-20.39C3.29,62.55.95,56.23.26,49.3c-.09-.87-.12-1.75-.24-2.62-.13-.87.32-1.17,1.06-1.22.6-.04,1.2-.05,1.8-.05,20.03-.02,40.05-.05,60.08-.06,6.79,0,13.6-.12,20.38.12,19.98.73,36.31,8.79,48.43,24.85,5.91,7.82,11.93,15.53,18.75,22.59,6.18,6.4,12.96,11.88,21.66,14.5,2.43.73,4.89,1.39,7.52,2.13.09-1.09.25-2.03.25-2.97.02-13.36,0-26.72.03-40.08,0-2.16-1.25-3.25-3.02-4.17-2.54-1.32-5.18-2.58-7.43-4.32-7.09-5.48-10.96-12.84-11.91-21.74-2.1-19.57,12.82-32.7,26.57-35.48,1.65-.33,3.34-.52,5.02-.78h2.16ZM179.71,219.27v-43.9c-2.31.37-4.47.7-6.63,1.05-8.45,1.4-16.89,2.84-25.34,4.2-8.34,1.35-16.45,3.51-24.12,7.09-2.99,1.4-6.01,2.9-8.62,4.87-3.73,2.81-3.45,7.94.43,10.32,4.73,2.9,9.6,5.64,15,7.09,13.7,3.66,27.44,7.21,41.6,8.64,2.53.26,5.07.42,7.67.63h0ZM202.41,197.62v8.64c0,3.88.03,7.76-.02,11.64,0,1.1.38,1.37,1.43,1.23,1.66-.22,3.34-.24,5-.47,7.65-1.08,15.33-2,22.93-3.36,9.12-1.62,18.02-4.17,26.5-7.96,2.97-1.32,5.91-2.9,8.47-4.87,3.49-2.68,3.52-6.19.28-9.2-1.64-1.53-3.57-2.91-5.61-3.81-4.66-2.05-9.4-3.99-14.23-5.58-10.48-3.44-21.3-5.39-32.26-6.6-3.68-.41-7.38-.71-11.06-1.14-1.14-.13-1.46.22-1.45,1.33.04,6.72.02,13.44.02,20.16h0ZM179.76,284.54c.04-.76.09-1.35.09-1.94v-31.3c0-2.76-.02-5.52,0-8.28,0-.84-.24-1.28-1.17-1.18-1.74.18-3.5.26-5.23.48-9.79,1.2-19.07,4.04-27.82,8.61-2.76,1.44-5.5,2.94-7.72,5.19-3.98,4.04-4.08,9.76.02,13.65,1.71,1.62,3.75,3,5.86,4.08,10.19,5.23,20.94,8.72,32.34,10.14,1.17.15,2.33.35,3.62.55h0ZM202.64,284.18c.39,0,.7.05,1,0,4.9-.85,9.83-1.57,14.69-2.61,7.41-1.59,14.49-4.13,20.8-8.47,2.38-1.64,4.64-3.43,6.17-5.94,1.1-1.79,1.64-3.7,1.08-5.83-.63-2.37-2.08-4.21-3.83-5.82-3.71-3.44-8.06-5.85-12.75-7.65-6.87-2.63-13.98-4.33-21.23-5.5-1.95-.31-3.9-.6-5.92-.91v42.73h-.01ZM179.75,306.43c-1.06.37-1.89.64-2.71.95-5.3,1.99-10.61,3.96-15.88,6.02-1.09.43-2.14,1.12-3,1.91-1.32,1.2-1.34,2.79-.04,4,.92.85,2.03,1.6,3.18,2.06,5.9,2.3,11.85,4.49,17.79,6.71.17.06.37.02.66.04v-21.68h0ZM202.45,328.31c.93-.34,1.67-.59,2.39-.88,5.45-2.16,10.9-4.3,16.33-6.52.82-.34,1.6-.92,2.23-1.56,1.26-1.27,1.28-2.8-.04-4.01-.87-.79-1.92-1.47-3.01-1.91-5.61-2.29-11.26-4.48-16.9-6.7-.28-.11-.6-.14-1.01-.23v21.81h0Z" fill="#9b7839"/></svg>